<svg width="2054" height="1504" viewBox="0 0 2054 1504" fill="none" xmlns="http://www.w3.org/2000/svg">
<path d="M677.964 13.6003C661.164 20.8003 633.564 34.4003 617.164 43.2003C600.364 52.4003 584.764 60.0003 581.964 60.0003C579.164 60.0003 571.564 64.4003 564.764 69.6003C557.964 74.8003 543.164 83.6003 531.564 89.2003C520.364 95.2003 505.964 104.8 499.564 110.4C493.564 116.4 483.164 123.2 476.364 126C469.964 128.8 455.564 139.2 444.364 149.2C361.964 223.6 325.564 258 321.564 265.2C319.164 270 307.964 282.8 296.764 294C275.164 315.2 262.364 330 231.564 371.6C221.164 385.6 207.164 400 200.364 403.6C193.964 406.8 180.364 416.4 170.364 424.4C160.364 432.4 147.964 441.2 142.364 444C118.764 456.4 81.9644 497.6 39.5644 558.4C27.9644 575.2 3.5644 623.6 0.364401 636C-2.0356 646.4 7.1644 666.8 35.5644 714C70.7644 772.4 115.964 818.8 179.564 861.6C219.164 888.4 227.964 896.4 237.964 914C246.364 928.4 253.564 936.4 261.964 939.2C269.964 942 273.564 946 273.164 950.8C272.764 959.6 289.164 988 295.164 988C297.164 988 305.564 995.6 313.564 1004.8C348.764 1045.2 371.564 1067.6 379.564 1069.6C384.764 1070.8 397.164 1081.6 407.564 1093.6C428.364 1118 485.564 1160.4 513.164 1172.4C522.364 1176.4 530.364 1181.6 530.364 1183.6C530.364 1186 545.964 1196 565.564 1206.4C584.764 1216.8 606.764 1229.2 614.364 1234C621.964 1238.8 637.564 1246.4 648.764 1251.2C659.964 1256 680.764 1264.8 694.764 1271.2C708.764 1277.6 722.364 1283.6 725.164 1284.4C727.564 1285.2 714.764 1299.2 697.164 1315.6C596.364 1406.4 498.364 1498 498.364 1501.2C498.364 1503.2 519.564 1504 545.564 1503.2L592.764 1502L626.764 1472C645.164 1455.6 691.164 1412 729.164 1375.2C773.564 1331.6 801.164 1308 806.364 1308C811.164 1308 819.964 1310.4 825.964 1313.6C845.964 1324.4 969.164 1345.2 988.764 1341.6C995.964 1340.4 1005.56 1341.6 1010.76 1344C1029.56 1354.4 1155.16 1353.2 1238.36 1342C1261.16 1339.2 1323.56 1323.6 1334.36 1318C1339.96 1315.2 1353.16 1311.2 1363.56 1308.4C1374.36 1306 1389.56 1300.4 1397.56 1296C1405.56 1291.6 1413.96 1288 1415.96 1288C1417.96 1288 1430.76 1282.8 1443.96 1276.4C1457.56 1270 1474.76 1262 1482.36 1258.4C1489.96 1254.8 1512.36 1239.6 1531.56 1224C1550.76 1208.8 1568.36 1196 1570.76 1196C1581.56 1196 1674.36 1088.4 1674.36 1076C1674.36 1072.4 1678.76 1065.2 1684.36 1060C1689.96 1054.8 1694.36 1048 1694.36 1044.8C1694.36 1041.6 1697.96 1034.4 1701.96 1028.4C1706.36 1022.4 1713.56 1005.2 1717.96 990C1722.76 974.4 1728.36 956.4 1730.76 950C1733.56 943.2 1737.96 927.2 1741.16 914C1744.36 900.8 1750.76 880 1755.16 867.6C1765.16 838.8 1807.56 773.6 1817.96 770C1822.76 768.8 1831.56 763.2 1837.56 758C1843.56 752.8 1856.76 746.8 1866.36 744.4C1898.36 736 1905.96 731.2 1920.36 712.4C1930.36 698.4 1935.16 686.4 1937.96 667.6C1946.76 614.8 1942.36 588 1921.16 564.8C1916.76 560 1910.76 556 1907.96 556C1905.56 556 1900.76 553.2 1897.96 549.2C1894.76 545.6 1881.56 537.6 1868.36 531.6C1812.36 505.2 1766.76 457.6 1756.36 414.8C1754.36 407.2 1769.56 391.6 1851.16 315.6C1904.76 266 1968.36 208.4 1992.36 187.2C2041.56 144.4 2056.76 129.2 2053.56 125.6C2049.96 122.4 2038.76 129.2 2008.36 152C1993.96 163.2 1980.36 172 1978.36 172C1976.36 172 1964.76 180 1953.16 189.6C1941.16 199.2 1925.56 210 1918.76 213.6C1905.56 220.8 1869.56 245.6 1789.16 303.2C1761.16 323.6 1736.36 339.2 1734.76 338.4C1732.76 337.2 1730.36 329.2 1729.16 320.4C1725.96 296.8 1693.56 226.4 1684.76 224.8C1680.76 224 1673.56 226.8 1669.16 231.2C1654.76 244 1617.96 261.2 1594.36 265.6C1549.96 273.6 1479.56 270 1461.16 258.4C1456.36 255.6 1447.56 252 1441.56 250.4C1435.56 249.2 1420.76 240 1408.36 230C1396.36 220 1384.76 212 1382.36 212C1380.36 212 1375.96 216.8 1372.76 222.8C1365.16 238 1345.96 255.2 1312.76 278C1263.56 311.2 1184.36 323.6 1127.16 306.8C1099.96 298.8 1043.16 260.8 1022.76 236.8C999.564 210 977.964 164.4 972.764 131.2C969.564 109.6 967.164 104 962.364 105.6C913.164 120.8 900.364 123.2 877.964 121.6C833.964 118.4 806.764 109.6 785.564 92.8003C755.164 68.4003 733.564 44.4003 723.564 23.6003C717.564 10.8003 711.564 0.000270565 710.364 0.000270565C709.164 0.000270565 694.764 6.00027 677.964 13.6003ZM710.364 209.6C710.364 210.8 708.764 212.8 706.364 214C704.364 215.2 702.364 214.4 702.364 212.4C702.364 210 704.364 208 706.364 208C708.764 208 710.364 208.8 710.364 209.6ZM993.164 498C994.364 501.6 994.364 505.6 992.764 506.8C989.964 509.6 978.364 500.4 978.364 495.6C978.364 489.6 990.364 491.6 993.164 498ZM1244.36 656C1242.36 659.2 1239.96 659.2 1237.56 656.8C1235.16 654.4 1234.76 650.4 1236.36 648C1238.36 644.8 1240.76 644.8 1243.16 647.2C1245.56 649.6 1245.96 653.6 1244.36 656ZM938.364 661.6C938.364 662.8 936.764 664.8 934.364 666C932.364 667.2 930.364 666.4 930.364 664.4C930.364 662 932.364 660 934.364 660C936.764 660 938.364 660.8 938.364 661.6ZM102.364 692C102.364 694 100.764 696 98.3644 696C96.3644 696 94.3644 694 94.3644 692C94.3644 689.6 96.3644 688 98.3644 688C100.764 688 102.364 689.6 102.364 692ZM1391.56 826C1391.96 828 1389.16 830.4 1385.56 831.2C1381.16 832 1378.36 830 1378.36 826C1378.36 819.2 1390.36 818.8 1391.56 826ZM666.364 885.6C666.364 886.8 664.764 888.8 662.364 890C660.364 891.2 658.364 890.4 658.364 888.4C658.364 886 660.364 884 662.364 884C664.764 884 666.364 884.8 666.364 885.6ZM1555.96 929.6C1565.16 949.2 1563.96 962.8 1551.96 974C1535.96 988.8 1500.36 986.8 1489.56 970.4C1479.96 956 1490.76 921.2 1507.16 913.2C1529.56 902 1545.16 907.2 1555.96 929.6ZM1387.56 934.4C1403.96 943.2 1406.36 946.8 1406.36 966C1406.36 979.6 1404.36 983.2 1393.96 988.8C1377.16 998.8 1363.56 997.6 1352.36 986C1338.36 972.4 1339.16 954.8 1353.96 939.6C1367.56 926 1370.36 925.6 1387.56 934.4ZM1266.76 1025.2C1282.76 1036 1298.36 1061.6 1298.36 1077.2C1298.36 1092 1284.76 1118.4 1272.76 1126C1254.36 1138 1237.96 1140.4 1217.56 1133.6C1182.36 1122 1166.36 1087.6 1180.36 1052.8C1193.56 1020 1237.96 1005.6 1266.76 1025.2ZM1454.36 1062.8C1460.76 1069.2 1467.56 1080 1468.76 1086.8C1471.16 1098 1469.16 1102 1457.16 1114C1435.96 1135.2 1406.76 1131.6 1395.96 1106C1391.16 1093.6 1391.16 1090.4 1396.76 1075.6C1407.16 1050 1433.56 1044 1454.36 1062.8ZM910.364 1210.4C910.364 1213.6 908.364 1215.2 906.364 1214C903.964 1212.4 903.164 1209.6 904.364 1207.6C907.964 1202 910.364 1203.2 910.364 1210.4Z" fill="#000859"/>
</svg>
