<svg xmlns="http://www.w3.org/2000/svg" viewBox="0 0 765.24 312.19"><defs><style>.cls-1{fill:#fff;}</style></defs><g id="Capa_2" data-name="Capa 2"><g id="Capa_1-2" data-name="Capa 1"><path class="cls-1" d="M534.24,312c-4-1.86-3.27-4.37-1-7.11,30.81-37,57.84-76.88,88.41-114,10.26-12.48,20.2-25.23,29.27-38.62,4.6-6.79,10.65-9.9,19-9.49,26.47,1.31,52.93-1.15,79.4-.88,5.45.06,11.06-.3,15.88,3.14v3c-5.36,7-10.55,14.12-16.12,20.95-10.57,13-18.48,28.15-32.19,38.53a15.66,15.66,0,0,0-3.83,5.19c-7,13-16.23,24.34-25.45,35.71-13.19,16.29-26.9,32.19-39.41,49-5.65,7.58-11,14.07-21,14.64h-19c-2.35-2.3-2.22-4.45,0-6.91,6.2-7,12.38-13.9,18-21.38,10.2-13.55,19.66-27.7,31.37-40.1A14.92,14.92,0,0,0,660.5,239c2.58-6.46-.17-10.49-7-9.62-7.82,1-15.63.44-23.44.65a10.55,10.55,0,0,0-8.6,4c-7.46,9-14.14,18.52-20.91,28-11.12,15.61-25.35,28.7-36,44.68-2,2.93-5.17,4.06-8.29,5.25Zm129-101.27c9.62.09,12.47-.43,14.8-3.86,6.37-9.42,14.47-17.39,21.61-26.16,3.14-3.87,6.6-7.55,8.55-12.24,1.06-2.56,1.74-5.23-1.44-6.94-7.59-4.08-22.09-1-27.13,6.08A247,247,0,0,1,663,188.11c-4,4.48-8,9-11.07,14.14-2.93,4.93-1.35,7.91,4.41,8.44C658.61,210.91,661,210.73,663.29,210.73Z"/><path class="cls-1" d="M.24,307q56.21-68.94,109.42-140.23c5.27-7.07,11.13-13.7,16.79-20.47,3.1-3.7,6.94-4.93,12-4.69,11.14.53,22.32.13,33.47.43,14,.39,27.95,1.05,41.91,1.69,5.69.26,11.31-.46,16.95-.9,1.75-.13,3.85-.88,5,1.15,1.27,2.26-.62,3.71-1.8,5.25-24.57,32.17-49.78,63.85-74.92,95.58-11.38,14.36-22.29,29.1-33.89,43.29-5.25,6.43-11.23,12.22-14.88,19.85a5.85,5.85,0,0,1-5.74,3.29c-7.67,0-15.33.08-23-.05-4.33-.07-5.29-1.81-3.11-5.76,3.42-6.15,8-11.45,12.61-16.73,7-8,14.36-15.62,19.74-25,3.32-5.84,8.6-10.56,13-15.77a49.57,49.57,0,0,0,7.5-11.17c2-4.46.32-7.85-4.38-7.42-8.87.81-17.56,0-26.33-.89-4.41-.43-7.31,3-9.77,6.13-6.36,8.14-12.58,16.39-18.75,24.67-11.54,15.5-24.56,29.85-35.43,45.86-2.15,3.16-4.9,5.2-9.05,5.35-3.45.12-6.87,1-10.3,1.58-4,0-8-.35-12,.09C1,312.57-.66,311.23.24,307ZM132.79,211c4.53-.75,9.68,1,13.77-3.44,10.44-11.2,18.41-24.4,29-35.47a15.05,15.05,0,0,0,3.1-5.06c.87-2.34.56-4.52-2.14-5.85-7.54-3.72-21.65-.79-27,5.65-5.12,6.12-9.33,12.93-14.82,18.8a189.89,189.89,0,0,0-13.56,16.61c-3,4.07-1.53,7.36,3.46,8.26A70.86,70.86,0,0,0,132.79,211Z"/><path class="cls-1" d="M384.24,312c-5.39-2.19-5.9-3.74-2.11-8.15,40.46-47,75.72-98.13,115-146.1a12.52,12.52,0,0,0,2.06-2.81c4.3-10.28,12.79-12.45,22.76-12.17,6.33.18,12.64-.1,19,.85,7,1,14-.24,20.87-1.31a16.46,16.46,0,0,1,7.42.19c3,.9,4.6,2.89,4.09,6-1.91,11.62-1.1,23.33-.55,34.92.62,13-4.11,23-12.63,32.35-17.77,19.47-33.53,40.58-48.28,62.4-6.21,9.19-13.86,15.75-24.44,19.48-11.31,4-22.55,8.18-33.91,12.05-4,1.37-8.24,1-12.2,2.34ZM523.86,174.06c-5.34-.39-10.63,1.71-13.37,8.52a22.09,22.09,0,0,1-3.34,4.95q-30.28,39.1-60.62,78.16c-3.57,4.6-7.86,8.64-10.56,13.9-3.13,6.11-1.39,9.57,5.21,8.56,13.86-2.12,27.61-5.31,37.64-16.27,19.49-21.29,34.41-46.15,52.73-68.38,4.09-4.95,5.41-11.4,5.46-17.88C537.08,176.85,534,173.85,523.86,174.06Z"/><path class="cls-1" d="M233.24,312c-9.91-1.15-19.86-2.43-29.82-1.52-15.82,1.46-31.64.47-47.45.68-4.26.06-4.81-1.68-2-5.86,8.34-12.29,17.76-23.75,26.88-35.44,27.34-35.09,54.32-70.47,82.45-104.94,2.93-3.59,5.18-7.75,7.7-11.67,4.5-7,10.75-10.48,19.21-10.45,25.13.1,50.27,0,75.4-.06,5.64,0,11.22-1,16.93-.12,6,.93,6.66,1.92,3.05,7.06-6.33,9-14.11,16.86-21,25.45-4.88,6.11-9.56,12.39-14.29,18.62a10.53,10.53,0,0,1-9.45,4.49c-6.33-.24-12.67,0-19-.09-4.9-.08-5.94-1.84-3.59-6.23,3.25-6.09,8.38-10.76,12.6-16.11,1.76-2.23,3.64-4.39,4.62-7.09,1.8-4.95.11-7.89-5.11-8.37a149.88,149.88,0,0,0-24,.16c-6.35.44-10.7,3.78-14.33,8.8-17.64,24.47-35.81,48.54-55,71.86-10.56,12.88-21.41,25.54-31.38,38.9-2.12,2.85-5.43,5.82-3.47,9.73s6.29,3,9.89,3.09c6.67.1,13.34,0,20,.18,4.76.17,8.22-1.72,11.19-5.34,7.5-9.11,13.63-19.38,22.7-27.19,1.14-1,2.19-2.67,3.42-2.8,8.53-1,17.22-1.4,25.54.67,3.58.89,1,4.23-.4,6.07-7.18,9.19-14.47,18.29-21.74,27.4-3.95,4.94-8.19,9.68-11.85,14.82-2.53,3.57-6.3,4-9.83,5.3Z"/><path class="cls-1" d="M331.24,0c4.39,2,8.86,3.81,13.17,6,6.24,3.1,6.7,6.35,1.54,10.92-16.19,14.34-32.26,28.87-47.3,44.39-15.78,16.28-32.91,31-49.5,46.43-5,4.6-11.53,5.13-17.79,5.25-7.8.15-15.62-.63-23.42-1-3.5-.17-4-1.89-2.19-4.55a12.7,12.7,0,0,1,2.76-2.86c16-12.07,29.26-27.16,44.2-40.38C276.88,42.76,300.16,20.36,325.24,0Z"/><path class="cls-1" d="M307.24,312c-3.54-2.75-1.93-5.27.1-8.1,20.4-28.43,42.52-55.54,64.26-82.93,3.42-4.31,6.76-8.69,9.85-13.23,2.42-3.54,5.61-5.25,9.73-4.86,6.16.58,12.29.13,18.43,0,1.59-.05,3.64-.67,4.58,1.06,1.08,2,0,3.93-1.24,5.53a135.8,135.8,0,0,1-9.09,11.28c-9.3,9.7-15.49,21.63-23.52,32.23-13.67,18.05-28.89,34.9-41.93,53.45-3.48,4.95-8.62,5.35-13.92,4.46A29.81,29.81,0,0,0,311.24,312Z"/><path class="cls-1" d="M446.88,142.08c3.32,0,6.65,0,10,0,3.88,0,5.42,2.11,3.52,5.45a107.05,107.05,0,0,1-21,25.75c-2.72,2.51-6.63,2.82-10.36,2.9-5.3.11-10.62-.36-15.92.48-1.67.26-3.48.07-4.46-1.52s-.16-3.24.89-4.58c5.62-7.2,11.33-14.32,16.9-21.56,4.07-5.29,9.15-8,15.95-7a33.47,33.47,0,0,0,4.48,0Z"/></g></g></svg>